<mxfile host="app.diagrams.net" modified="2024-04-19T12:49:23.823Z" agent="Mozilla/5.0 (Macintosh; Intel Mac OS X 10.15; rv:125.0) Gecko/20100101 Firefox/125.0" etag="lT92tlQlaQDLRm6kIRjH" version="24.2.5" type="github">
  <diagram name="第 1 页" id="VPOzT9VKhnT1XTboVsOU">
    <mxGraphModel dx="2183" dy="1107" grid="1" gridSize="10" guides="1" tooltips="1" connect="1" arrows="1" fold="1" page="1" pageScale="1" pageWidth="827" pageHeight="1169" math="0" shadow="0">
      <root>
        <mxCell id="0" />
        <mxCell id="1" parent="0" />
        <mxCell id="yP6bgPAmXCCxbCBNc-EV-8" style="edgeStyle=none;rounded=0;orthogonalLoop=1;jettySize=auto;html=1;exitX=0.5;exitY=1;exitDx=0;exitDy=0;entryX=0.5;entryY=0;entryDx=0;entryDy=0;" edge="1" parent="1" source="yP6bgPAmXCCxbCBNc-EV-1" target="yP6bgPAmXCCxbCBNc-EV-2">
          <mxGeometry relative="1" as="geometry" />
        </mxCell>
        <mxCell id="yP6bgPAmXCCxbCBNc-EV-1" value="UIWindow" style="rounded=0;whiteSpace=wrap;html=1;" vertex="1" parent="1">
          <mxGeometry x="310" y="140" width="130" height="60" as="geometry" />
        </mxCell>
        <mxCell id="yP6bgPAmXCCxbCBNc-EV-9" style="edgeStyle=none;rounded=0;orthogonalLoop=1;jettySize=auto;html=1;exitX=0.5;exitY=1;exitDx=0;exitDy=0;entryX=0.5;entryY=0;entryDx=0;entryDy=0;" edge="1" parent="1" source="yP6bgPAmXCCxbCBNc-EV-2" target="yP6bgPAmXCCxbCBNc-EV-3">
          <mxGeometry relative="1" as="geometry" />
        </mxCell>
        <mxCell id="yP6bgPAmXCCxbCBNc-EV-2" value="UINavigationController" style="rounded=0;whiteSpace=wrap;html=1;" vertex="1" parent="1">
          <mxGeometry x="310" y="230" width="130" height="60" as="geometry" />
        </mxCell>
        <mxCell id="yP6bgPAmXCCxbCBNc-EV-10" style="edgeStyle=none;rounded=0;orthogonalLoop=1;jettySize=auto;html=1;exitX=0.5;exitY=1;exitDx=0;exitDy=0;entryX=0.5;entryY=0;entryDx=0;entryDy=0;" edge="1" parent="1" source="yP6bgPAmXCCxbCBNc-EV-3" target="yP6bgPAmXCCxbCBNc-EV-4">
          <mxGeometry relative="1" as="geometry" />
        </mxCell>
        <mxCell id="yP6bgPAmXCCxbCBNc-EV-11" style="edgeStyle=none;rounded=0;orthogonalLoop=1;jettySize=auto;html=1;exitX=0.5;exitY=1;exitDx=0;exitDy=0;entryX=0.5;entryY=0;entryDx=0;entryDy=0;" edge="1" parent="1" source="yP6bgPAmXCCxbCBNc-EV-3" target="yP6bgPAmXCCxbCBNc-EV-5">
          <mxGeometry relative="1" as="geometry" />
        </mxCell>
        <mxCell id="yP6bgPAmXCCxbCBNc-EV-12" style="edgeStyle=none;rounded=0;orthogonalLoop=1;jettySize=auto;html=1;exitX=0.5;exitY=1;exitDx=0;exitDy=0;entryX=0.5;entryY=0;entryDx=0;entryDy=0;" edge="1" parent="1" source="yP6bgPAmXCCxbCBNc-EV-3" target="yP6bgPAmXCCxbCBNc-EV-6">
          <mxGeometry relative="1" as="geometry" />
        </mxCell>
        <mxCell id="yP6bgPAmXCCxbCBNc-EV-13" style="edgeStyle=none;rounded=0;orthogonalLoop=1;jettySize=auto;html=1;exitX=0.5;exitY=1;exitDx=0;exitDy=0;entryX=0.5;entryY=0;entryDx=0;entryDy=0;" edge="1" parent="1" source="yP6bgPAmXCCxbCBNc-EV-3" target="yP6bgPAmXCCxbCBNc-EV-7">
          <mxGeometry relative="1" as="geometry" />
        </mxCell>
        <mxCell id="yP6bgPAmXCCxbCBNc-EV-3" value="UITabBarController" style="rounded=0;whiteSpace=wrap;html=1;" vertex="1" parent="1">
          <mxGeometry x="310" y="310" width="130" height="60" as="geometry" />
        </mxCell>
        <mxCell id="yP6bgPAmXCCxbCBNc-EV-4" value="UIViewController" style="rounded=0;whiteSpace=wrap;html=1;" vertex="1" parent="1">
          <mxGeometry x="85" y="440" width="130" height="60" as="geometry" />
        </mxCell>
        <mxCell id="yP6bgPAmXCCxbCBNc-EV-24" style="edgeStyle=none;rounded=0;orthogonalLoop=1;jettySize=auto;html=1;exitX=0.5;exitY=1;exitDx=0;exitDy=0;entryX=0.5;entryY=0;entryDx=0;entryDy=0;" edge="1" parent="1" source="yP6bgPAmXCCxbCBNc-EV-5" target="yP6bgPAmXCCxbCBNc-EV-16">
          <mxGeometry relative="1" as="geometry" />
        </mxCell>
        <mxCell id="yP6bgPAmXCCxbCBNc-EV-25" style="edgeStyle=none;rounded=0;orthogonalLoop=1;jettySize=auto;html=1;exitX=0.5;exitY=1;exitDx=0;exitDy=0;entryX=0.5;entryY=0;entryDx=0;entryDy=0;" edge="1" parent="1" source="yP6bgPAmXCCxbCBNc-EV-5" target="yP6bgPAmXCCxbCBNc-EV-15">
          <mxGeometry relative="1" as="geometry" />
        </mxCell>
        <mxCell id="yP6bgPAmXCCxbCBNc-EV-26" style="edgeStyle=none;rounded=0;orthogonalLoop=1;jettySize=auto;html=1;exitX=0.5;exitY=1;exitDx=0;exitDy=0;entryX=0.5;entryY=0;entryDx=0;entryDy=0;" edge="1" parent="1" source="yP6bgPAmXCCxbCBNc-EV-5" target="yP6bgPAmXCCxbCBNc-EV-14">
          <mxGeometry relative="1" as="geometry" />
        </mxCell>
        <mxCell id="yP6bgPAmXCCxbCBNc-EV-5" value="UIViewController" style="rounded=0;whiteSpace=wrap;html=1;" vertex="1" parent="1">
          <mxGeometry x="235" y="440" width="130" height="60" as="geometry" />
        </mxCell>
        <mxCell id="yP6bgPAmXCCxbCBNc-EV-6" value="UIViewController" style="rounded=0;whiteSpace=wrap;html=1;" vertex="1" parent="1">
          <mxGeometry x="385" y="440" width="130" height="60" as="geometry" />
        </mxCell>
        <mxCell id="yP6bgPAmXCCxbCBNc-EV-7" value="UIViewController" style="rounded=0;whiteSpace=wrap;html=1;" vertex="1" parent="1">
          <mxGeometry x="535" y="440" width="130" height="60" as="geometry" />
        </mxCell>
        <mxCell id="yP6bgPAmXCCxbCBNc-EV-23" style="edgeStyle=none;rounded=0;orthogonalLoop=1;jettySize=auto;html=1;exitX=0.5;exitY=1;exitDx=0;exitDy=0;entryX=0.5;entryY=0;entryDx=0;entryDy=0;" edge="1" parent="1" source="yP6bgPAmXCCxbCBNc-EV-14" target="yP6bgPAmXCCxbCBNc-EV-17">
          <mxGeometry relative="1" as="geometry" />
        </mxCell>
        <mxCell id="yP6bgPAmXCCxbCBNc-EV-14" value="UIView" style="rounded=0;whiteSpace=wrap;html=1;" vertex="1" parent="1">
          <mxGeometry x="330" y="530" width="75" height="40" as="geometry" />
        </mxCell>
        <mxCell id="yP6bgPAmXCCxbCBNc-EV-15" value="UIView" style="rounded=0;whiteSpace=wrap;html=1;" vertex="1" parent="1">
          <mxGeometry x="262.5" y="550" width="75" height="40" as="geometry" />
        </mxCell>
        <mxCell id="yP6bgPAmXCCxbCBNc-EV-16" value="UIView" style="rounded=0;whiteSpace=wrap;html=1;" vertex="1" parent="1">
          <mxGeometry x="190" y="565" width="80" height="40" as="geometry" />
        </mxCell>
        <mxCell id="yP6bgPAmXCCxbCBNc-EV-17" value="UIViewController" style="rounded=0;whiteSpace=wrap;html=1;" vertex="1" parent="1">
          <mxGeometry x="317.5" y="620" width="130" height="60" as="geometry" />
        </mxCell>
        <mxCell id="yP6bgPAmXCCxbCBNc-EV-18" value="UIViewController" style="rounded=0;whiteSpace=wrap;html=1;" vertex="1" parent="1">
          <mxGeometry x="235" y="640" width="130" height="60" as="geometry" />
        </mxCell>
        <mxCell id="yP6bgPAmXCCxbCBNc-EV-19" value="UIViewController" style="rounded=0;whiteSpace=wrap;html=1;" vertex="1" parent="1">
          <mxGeometry x="152.5" y="660" width="130" height="60" as="geometry" />
        </mxCell>
        <mxCell id="yP6bgPAmXCCxbCBNc-EV-21" style="edgeStyle=none;rounded=0;orthogonalLoop=1;jettySize=auto;html=1;exitX=0.5;exitY=1;exitDx=0;exitDy=0;entryX=0.5;entryY=0;entryDx=0;entryDy=0;" edge="1" parent="1" source="yP6bgPAmXCCxbCBNc-EV-16" target="yP6bgPAmXCCxbCBNc-EV-19">
          <mxGeometry relative="1" as="geometry" />
        </mxCell>
        <mxCell id="yP6bgPAmXCCxbCBNc-EV-22" style="edgeStyle=none;rounded=0;orthogonalLoop=1;jettySize=auto;html=1;exitX=0.5;exitY=1;exitDx=0;exitDy=0;entryX=0.5;entryY=0;entryDx=0;entryDy=0;" edge="1" parent="1" source="yP6bgPAmXCCxbCBNc-EV-15" target="yP6bgPAmXCCxbCBNc-EV-18">
          <mxGeometry relative="1" as="geometry" />
        </mxCell>
        <mxCell id="yP6bgPAmXCCxbCBNc-EV-28" value="" style="rounded=0;whiteSpace=wrap;html=1;" vertex="1" parent="1">
          <mxGeometry x="920" y="280" width="310" height="460" as="geometry" />
        </mxCell>
        <mxCell id="yP6bgPAmXCCxbCBNc-EV-29" value="&lt;font style=&quot;font-size: 24px;&quot;&gt;Cell&lt;/font&gt;" style="rounded=0;whiteSpace=wrap;html=1;" vertex="1" parent="1">
          <mxGeometry x="970" y="300" width="210" height="60" as="geometry" />
        </mxCell>
        <mxCell id="yP6bgPAmXCCxbCBNc-EV-30" value="&lt;font style=&quot;font-size: 24px;&quot;&gt;Cell&lt;/font&gt;" style="rounded=0;whiteSpace=wrap;html=1;" vertex="1" parent="1">
          <mxGeometry x="970" y="200" width="210" height="60" as="geometry" />
        </mxCell>
        <mxCell id="yP6bgPAmXCCxbCBNc-EV-31" value="&lt;font style=&quot;font-size: 24px;&quot;&gt;Cell&lt;/font&gt;" style="rounded=0;whiteSpace=wrap;html=1;" vertex="1" parent="1">
          <mxGeometry x="970" y="390" width="210" height="60" as="geometry" />
        </mxCell>
        <mxCell id="yP6bgPAmXCCxbCBNc-EV-32" value="&lt;font style=&quot;font-size: 24px;&quot;&gt;Cell&lt;/font&gt;" style="rounded=0;whiteSpace=wrap;html=1;" vertex="1" parent="1">
          <mxGeometry x="970" y="480" width="210" height="60" as="geometry" />
        </mxCell>
        <mxCell id="yP6bgPAmXCCxbCBNc-EV-33" value="&lt;font style=&quot;font-size: 24px;&quot;&gt;Cell&lt;/font&gt;" style="rounded=0;whiteSpace=wrap;html=1;" vertex="1" parent="1">
          <mxGeometry x="970" y="570" width="210" height="60" as="geometry" />
        </mxCell>
        <mxCell id="yP6bgPAmXCCxbCBNc-EV-34" value="&lt;font style=&quot;font-size: 24px;&quot;&gt;Cell&lt;/font&gt;" style="rounded=0;whiteSpace=wrap;html=1;" vertex="1" parent="1">
          <mxGeometry x="970" y="660" width="210" height="60" as="geometry" />
        </mxCell>
        <mxCell id="yP6bgPAmXCCxbCBNc-EV-35" value="&lt;font style=&quot;font-size: 24px;&quot;&gt;Cell&lt;/font&gt;" style="rounded=0;whiteSpace=wrap;html=1;" vertex="1" parent="1">
          <mxGeometry x="970" y="770" width="210" height="60" as="geometry" />
        </mxCell>
        <mxCell id="yP6bgPAmXCCxbCBNc-EV-36" value="&lt;font style=&quot;font-size: 24px;&quot;&gt;Cell&lt;/font&gt;" style="rounded=0;whiteSpace=wrap;html=1;" vertex="1" parent="1">
          <mxGeometry x="970" y="120" width="210" height="60" as="geometry" />
        </mxCell>
        <mxCell id="yP6bgPAmXCCxbCBNc-EV-37" value="&lt;font style=&quot;font-size: 24px;&quot;&gt;Cell&lt;/font&gt;" style="rounded=0;whiteSpace=wrap;html=1;" vertex="1" parent="1">
          <mxGeometry x="970" y="850" width="210" height="60" as="geometry" />
        </mxCell>
        <mxCell id="yP6bgPAmXCCxbCBNc-EV-38" value="" style="curved=1;endArrow=classic;html=1;rounded=0;exitX=1;exitY=0.5;exitDx=0;exitDy=0;entryX=1;entryY=0.5;entryDx=0;entryDy=0;" edge="1" parent="1" source="yP6bgPAmXCCxbCBNc-EV-30" target="yP6bgPAmXCCxbCBNc-EV-34">
          <mxGeometry width="50" height="50" relative="1" as="geometry">
            <mxPoint x="1200" y="120" as="sourcePoint" />
            <mxPoint x="1190" y="700" as="targetPoint" />
            <Array as="points">
              <mxPoint x="1260" y="250" />
              <mxPoint x="1300" y="390" />
              <mxPoint x="1300" y="500" />
              <mxPoint x="1270" y="630" />
            </Array>
          </mxGeometry>
        </mxCell>
        <mxCell id="yP6bgPAmXCCxbCBNc-EV-40" value="" style="shape=flexArrow;endArrow=classic;html=1;rounded=0;" edge="1" parent="1">
          <mxGeometry width="50" height="50" relative="1" as="geometry">
            <mxPoint x="880" y="480" as="sourcePoint" />
            <mxPoint x="880" y="570" as="targetPoint" />
          </mxGeometry>
        </mxCell>
      </root>
    </mxGraphModel>
  </diagram>
</mxfile>
